<svg xmlns="http://www.w3.org/2000/svg" viewBox="0 0 120 120" fill="none">
  <!-- 猫脸 favicon：墨蓝底 + 翡翠眼 + 粉肉垫 -->
  <circle cx="60" cy="66" r="52" fill="#0b0d18"/>
  <circle cx="60" cy="66" r="52" stroke="#2dd4a7" stroke-width="3"/>
  <path d="M34 44 L26 12 L56 32 Z" fill="#0b0d18" stroke="#2dd4a7" stroke-width="3" stroke-linejoin="round"/>
  <path d="M86 44 L94 12 L64 32 Z" fill="#0b0d18" stroke="#2dd4a7" stroke-width="3" stroke-linejoin="round"/>
  <path d="M35 42 L30 22 L50 34 Z" fill="#ff8fab" opacity="0.8"/>
  <path d="M85 42 L90 22 L70 34 Z" fill="#ff8fab" opacity="0.8"/>
  <ellipse cx="46" cy="62" rx="10" ry="12" fill="#2dd4a7"/>
  <ellipse cx="74" cy="62" rx="10" ry="12" fill="#2dd4a7"/>
  <ellipse cx="46" cy="62" rx="3.5" ry="8.5" fill="#0b0d18"/>
  <ellipse cx="74" cy="62" rx="3.5" ry="8.5" fill="#0b0d18"/>
  <circle cx="44" cy="57" r="2.2" fill="#fff" opacity="0.9"/>
  <circle cx="72" cy="57" r="2.2" fill="#fff" opacity="0.9"/>
  <path d="M57 78 L63 78 L60 83 Z" fill="#ff8fab"/>
  <path d="M60 83 Q54 89 50 86" stroke="#eef1fa" stroke-width="1.8" stroke-linecap="round"/>
  <path d="M60 83 Q66 89 70 86" stroke="#eef1fa" stroke-width="1.8" stroke-linecap="round"/>
</svg>
